<?xml version="1.0" standalone="no"?>
<!DOCTYPE svg PUBLIC "-//W3C//DTD SVG 20010904//EN"
 "http://www.w3.org/TR/2001/REC-SVG-20010904/DTD/svg10.dtd">
<svg version="1.0" xmlns="http://www.w3.org/2000/svg"
 width="200.000000pt" height="200.000000pt" viewBox="0 0 200.000000 200.000000"
 preserveAspectRatio="xMidYMid meet">

<g transform="translate(0.000000,200.000000) scale(0.100000,-0.100000)"
fill="#000000" stroke="none">
<path d="M317 1206 c-3 -22 -4 -43 -1 -45 8 -8 24 14 33 46 8 26 6 32 -9 36
-14 4 -19 -3 -23 -37z"/>
<path d="M244 1224 c3 -9 9 -27 12 -40 10 -41 30 -29 26 16 -3 32 -8 40 -24
40 -14 0 -18 -5 -14 -16z"/>
<path d="M220 1175 c0 -8 4 -15 10 -15 5 0 7 7 4 15 -4 8 -8 15 -10 15 -2 0
-4 -7 -4 -15z"/>
<path d="M360 1170 c0 -5 5 -10 10 -10 6 0 10 5 10 10 0 6 -4 10 -10 10 -5 0
-10 -4 -10 -10z"/>
<path d="M212 1128 c-21 -21 -13 -28 33 -28 38 0 45 3 45 20 0 16 -7 20 -33
20 -18 0 -38 -5 -45 -12z"/>
<path d="M304 1128 c-11 -17 9 -28 47 -28 33 0 40 3 37 18 -2 12 -13 17 -41
17 -21 1 -41 -3 -43 -7z"/>
<path d="M503 1133 c-10 -3 -13 -40 -13 -134 l0 -129 25 0 c24 0 25 2 26 73 1
70 1 71 13 37 9 -25 19 -36 37 -38 21 -2 27 4 41 40 l17 43 0 -77 c1 -76 2
-78 26 -78 l25 0 0 129 c0 105 -3 130 -15 135 -28 10 -42 -5 -67 -77 l-25 -71
-22 59 c-32 90 -40 100 -68 88z"/>
<path d="M740 1021 c0 -119 0 -120 27 -141 21 -16 36 -20 62 -16 60 9 66 23
66 154 0 110 -1 117 -20 117 -18 0 -20 -9 -26 -110 -4 -60 -7 -111 -8 -113 0
-2 -11 -2 -23 0 -22 3 -23 8 -28 113 -5 105 -6 110 -27 113 -23 3 -23 2 -23
-117z"/>
<path d="M940 1005 l0 -135 26 0 26 0 -4 80 c-2 43 0 76 3 72 3 -4 18 -40 33
-79 24 -63 31 -73 52 -73 l24 0 0 136 c0 135 0 135 -22 132 -22 -3 -23 -8 -23
-80 0 -42 -3 -74 -6 -70 -3 4 -16 34 -29 67 -28 73 -37 85 -61 85 -18 0 -19
-10 -19 -135z"/>
<path d="M1150 1004 l0 -134 58 0 c84 0 92 12 92 132 0 115 -10 129 -95 134
l-55 3 0 -135z m98 -1 c-3 -83 -4 -88 -25 -91 -22 -3 -23 -1 -23 87 0 91 0 91
25 91 l26 0 -3 -87z"/>
<path d="M1399 1133 c-12 -3 -23 -37 -43 -126 -14 -67 -26 -126 -26 -130 0 -4
11 -7 24 -7 18 0 25 7 30 30 5 25 10 30 35 30 25 0 30 -4 33 -27 2 -22 9 -29
29 -31 l26 -3 -27 125 c-16 68 -31 129 -34 135 -7 11 -18 12 -47 4z m30 -135
c1 -20 -4 -28 -15 -28 -13 0 -15 7 -10 31 3 17 6 41 7 53 1 19 2 18 9 -4 4
-14 8 -37 9 -52z"/>
<path d="M1517 1134 c-4 -4 -7 -16 -7 -26 0 -13 7 -18 25 -18 l25 0 0 -110 0
-110 25 0 25 0 0 110 0 110 25 0 c19 0 25 5 25 23 0 21 -5 23 -68 25 -37 2
-71 0 -75 -4z"/>
<path d="M1726 1121 c-3 -9 -14 -59 -26 -111 -11 -52 -22 -105 -25 -117 -4
-19 -1 -23 19 -23 19 0 26 7 31 30 5 25 12 30 35 30 23 0 29 -5 34 -30 4 -24
11 -30 31 -30 21 0 25 4 20 23 -3 12 -14 63 -25 112 -11 50 -22 99 -25 110 -5
26 -62 31 -69 6z m46 -107 c3 -24 0 -38 -9 -41 -20 -8 -23 -1 -16 40 7 47 20
48 25 1z"/>
<path d="M186 1044 c-9 -24 -9 -24 38 -24 31 0 46 5 50 16 9 24 9 24 -38 24
-31 0 -46 -5 -50 -16z"/>
<path d="M320 1041 c0 -18 6 -21 46 -21 38 0 45 3 42 18 -2 12 -15 18 -46 20
-37 3 -42 1 -42 -17z"/>
<path d="M167 966 c-3 -8 -3 -17 0 -20 4 -3 64 -6 135 -6 121 0 128 1 128 20
0 19 -7 20 -129 20 -101 0 -130 -3 -134 -14z"/>
<path d="M154 894 c3 -9 6 -18 6 -20 0 -2 18 -4 40 -4 33 0 40 3 40 20 0 17
-7 20 -46 20 -38 0 -45 -3 -40 -16z"/>
<path d="M357 904 c-15 -16 8 -34 44 -34 32 0 39 3 39 20 0 17 -7 20 -38 20
-21 0 -41 -3 -45 -6z"/>
<path d="M195 820 c3 -5 10 -10 16 -10 5 0 9 5 9 10 0 6 -7 10 -16 10 -8 0
-12 -4 -9 -10z"/>
<path d="M370 820 c0 -5 6 -10 14 -10 8 0 18 5 21 10 3 6 -3 10 -14 10 -12 0
-21 -4 -21 -10z"/>
</g>
</svg>
