<?xml version="1.0" standalone="no"?>
<!DOCTYPE svg PUBLIC "-//W3C//DTD SVG 20010904//EN"
 "http://www.w3.org/TR/2001/REC-SVG-20010904/DTD/svg10.dtd">
<svg version="1.0" xmlns="http://www.w3.org/2000/svg"
 width="225.000000pt" height="225.000000pt" viewBox="0 0 225.000000 225.000000"
 preserveAspectRatio="xMidYMid meet">

<g transform="translate(0.000000,225.000000) scale(0.100000,-0.100000)"
fill="#000000" stroke="none">
<path d="M925 1735 c-5 -2 -31 -6 -57 -10 -25 -3 -55 -14 -66 -23 -80 -70 -79
-265 4 -496 l28 -79 13 64 c17 85 36 129 83 199 116 171 363 238 548 149 60
-29 72 -59 72 -176 0 -113 -12 -143 -60 -143 -40 0 -64 34 -97 138 -30 93 -50
122 -86 122 -81 0 -143 -213 -119 -410 13 -110 46 -187 95 -224 76 -58 140
-39 198 58 25 41 40 56 56 56 29 0 38 -34 24 -86 -6 -21 -9 -39 -7 -41 6 -6
121 84 170 133 97 98 168 230 170 318 1 43 -4 60 -28 94 -85 123 -397 274
-681 330 -97 19 -240 34 -260 27z"/>
<path d="M730 505 c0 -43 4 -75 10 -75 6 0 10 32 10 75 0 43 -4 75 -10 75 -6
0 -10 -32 -10 -75z"/>
<path d="M785 569 c-10 -15 3 -25 16 -12 7 7 7 13 1 17 -6 3 -14 1 -17 -5z"/>
<path d="M1370 552 c0 -24 -4 -27 -32 -27 -30 0 -33 -3 -36 -33 -4 -44 12 -62
54 -60 l34 1 0 74 c0 42 -4 73 -10 73 -5 0 -10 -12 -10 -28z m-10 -47 c17 -20
8 -50 -15 -50 -20 0 -31 25 -21 51 7 18 20 18 36 -1z"/>
<path d="M1640 505 c0 -43 4 -75 10 -75 6 0 10 32 10 75 0 43 -4 75 -10 75 -6
0 -10 -32 -10 -75z"/>
<path d="M629 552 c-25 -21 -30 -71 -10 -96 15 -18 66 -30 83 -19 9 5 1 10
-22 13 -27 4 -37 11 -44 33 -14 37 2 61 43 65 17 2 29 8 26 13 -10 15 -51 10
-76 -9z"/>
<path d="M782 483 c4 -59 23 -55 23 5 0 28 -4 42 -13 42 -9 0 -12 -14 -10 -47z"/>
<path d="M840 478 c0 -30 4 -47 10 -43 6 3 10 18 10 33 0 15 4 33 9 41 15 23
31 2 31 -40 0 -21 5 -39 11 -39 6 0 9 19 7 48 -3 47 -3 47 -40 49 l-38 1 0
-50z"/>
<path d="M961 517 c-23 -23 -2 -87 28 -87 19 0 18 14 -2 31 -18 14 -20 21 -11
36 22 35 39 21 39 -32 0 -47 -2 -50 -28 -53 -32 -4 -26 -22 7 -22 34 0 45 19
51 82 l4 56 -38 0 c-21 0 -43 -4 -50 -11z"/>
<path d="M1082 518 c-7 -7 -12 -25 -12 -40 0 -33 37 -56 67 -43 15 7 13 9 -11
14 -44 9 -45 31 -2 31 23 0 36 5 36 13 0 19 -21 37 -45 37 -12 0 -26 -5 -33
-12z m56 -15 c2 -8 -6 -13 -22 -13 -25 0 -33 10 -19 24 10 10 36 3 41 -11z"/>
<path d="M1184 486 c2 -72 21 -73 28 -1 5 48 32 39 36 -12 2 -24 8 -43 13 -43
6 0 9 21 7 48 l-3 47 -41 3 -41 3 1 -45z"/>
<path d="M1430 522 c0 -5 10 -8 21 -8 33 1 35 -22 2 -26 -20 -2 -29 -9 -31
-25 -4 -24 -2 -25 48 -27 30 -1 31 0 28 44 -3 43 -5 45 -35 48 -18 2 -33 -1
-33 -6z m48 -54 c-7 -19 -38 -22 -38 -4 0 10 9 16 21 16 12 0 19 -5 17 -12z"/>
<path d="M1536 515 c-13 -36 -6 -65 18 -77 25 -11 56 -6 56 10 0 4 -12 8 -27
7 -14 0 -28 6 -30 13 -3 8 7 12 31 12 32 0 35 2 27 23 -10 28 -65 37 -75 12z
m52 -13 c2 -7 -6 -12 -17 -12 -21 0 -27 11 -14 24 9 9 26 2 31 -12z"/>
</g>
</svg>
