<?xml version="1.0" standalone="no"?>
<!DOCTYPE svg PUBLIC "-//W3C//DTD SVG 20010904//EN"
 "http://www.w3.org/TR/2001/REC-SVG-20010904/DTD/svg10.dtd">
<svg version="1.0" xmlns="http://www.w3.org/2000/svg"
 width="200.000000pt" height="200.000000pt" viewBox="0 0 200.000000 200.000000"
 preserveAspectRatio="xMidYMid meet">

<g transform="translate(0.000000,200.000000) scale(0.100000,-0.100000)"
fill="#000000" stroke="none">
<path d="M1310 1441 c-24 -6 -25 -11 -28 -84 -2 -42 -6 -77 -10 -77 -4 0 -29
11 -56 25 -95 48 -215 21 -289 -65 -41 -48 -52 -79 -62 -163 -10 -93 -72 -147
-165 -147 -91 0 -150 61 -150 154 0 153 172 219 274 105 l34 -37 17 45 c16 42
16 45 -1 64 -31 34 -119 69 -173 69 -131 0 -241 -115 -241 -253 0 -38 -31 -90
-72 -120 -69 -51 -194 -24 -236 52 -24 43 -28 104 -9 137 46 79 92 103 199
104 67 0 68 0 82 33 7 17 11 35 9 40 -2 4 -46 7 -97 7 -79 0 -99 -4 -144 -26
-67 -33 -106 -81 -127 -155 -30 -107 6 -204 97 -265 51 -35 116 -49 175 -38
47 8 115 46 141 79 l19 24 29 -30 c93 -99 254 -101 349 -6 55 55 66 76 76 160
5 38 17 84 27 101 59 100 212 103 271 5 l20 -32 14 35 c8 20 31 54 51 76 35
38 36 42 36 116 0 82 -1 83 -60 67z"/>
<path d="M1427 1306 c-91 -45 -129 -102 -146 -218 -6 -41 -18 -80 -32 -99 -25
-36 -90 -69 -134 -69 -45 0 -112 35 -133 69 l-18 29 -20 -44 -21 -45 30 -25
c54 -46 88 -58 162 -58 79 0 130 21 179 73 l29 30 19 -24 c36 -47 101 -76 170
-78 l63 -2 0 35 c0 35 0 35 -55 42 -62 9 -94 29 -128 79 l-23 34 193 5 c106 3
199 9 206 13 35 23 -18 174 -77 216 -88 63 -183 76 -264 37z m181 -173 c-43
-2 -113 -2 -155 0 -43 1 -8 3 77 3 85 0 120 -2 78 -3z"/>
<path d="M1810 1101 c-20 -38 13 -71 51 -51 21 12 25 40 7 58 -18 18 -46 14
-58 -7z m50 -36 c-14 -17 -30 -20 -30 -4 0 5 5 7 10 4 10 -6 15 9 10 30 -1 6
4 5 11 -2 10 -10 9 -15 -1 -28z"/>
<path d="M1180 707 c0 -43 4 -59 15 -64 24 -9 31 5 10 21 -13 9 -17 21 -12 42
3 17 2 36 -4 44 -6 10 -9 -4 -9 -43z"/>
<path d="M768 734 c-30 -16 -38 -44 -13 -44 8 0 15 -7 15 -15 0 -9 -9 -15 -25
-15 -14 0 -25 -4 -25 -10 0 -6 30 -10 69 -10 54 0 70 4 75 16 10 25 7 94 -4
94 -5 0 -10 -20 -10 -45 0 -40 -2 -45 -23 -45 -15 0 -26 10 -36 31 -12 27 -11
32 5 44 25 19 6 18 -28 -1z"/>
<path d="M903 700 c0 -30 2 -43 4 -27 2 15 2 39 0 55 -2 15 -4 2 -4 -28z"/>
<path d="M1698 708 c-3 -47 -24 -61 -37 -26 l-9 23 -11 -29 c-14 -35 -3 -46
37 -38 35 6 42 18 42 70 0 54 -18 55 -22 0z"/>
<path d="M340 730 c0 -5 5 -10 10 -10 6 0 10 5 10 10 0 6 -4 10 -10 10 -5 0
-10 -4 -10 -10z"/>
<path d="M1080 730 c0 -5 7 -10 16 -10 8 0 12 5 9 10 -3 6 -10 10 -16 10 -5 0
-9 -4 -9 -10z"/>
<path d="M1300 710 c0 -11 7 -23 15 -26 27 -11 16 -24 -20 -24 -28 0 -35 4
-35 20 0 31 -17 23 -24 -11 -9 -45 -8 -49 9 -49 8 0 15 5 15 10 0 15 47 12 53
-2 4 -10 8 -10 15 0 7 11 10 11 16 -3 3 -9 10 -13 16 -10 6 4 8 11 5 16 -4 5
-1 9 4 9 6 0 11 5 11 10 0 6 -7 10 -15 10 -8 0 -21 16 -29 35 -16 38 -36 47
-36 15z"/>
<path d="M417 704 c-13 -14 -7 -36 16 -55 l22 -18 -27 -1 c-16 0 -28 -4 -28
-10 0 -16 36 -11 60 8 21 17 22 21 9 48 -14 28 -38 41 -52 28z m30 -30 c-9 -9
-28 6 -21 18 4 6 10 6 17 -1 6 -6 8 -13 4 -17z"/>
<path d="M264 668 c1 -29 -2 -33 -26 -36 -16 -2 -28 -8 -28 -13 0 -15 42 -10
62 8 12 10 32 16 54 15 30 -2 34 0 34 22 0 14 -5 28 -12 32 -8 5 -9 0 -6 -14
5 -19 2 -22 -22 -22 -20 0 -31 6 -35 20 -10 31 -23 24 -21 -12z"/>
<path d="M502 675 c-16 -35 -15 -55 3 -55 8 0 15 5 15 10 0 6 9 10 20 10 11 0
20 -5 20 -11 0 -8 5 -7 16 2 9 7 41 13 75 13 32 0 59 4 59 8 0 5 -4 8 -10 8
-5 0 -10 6 -10 14 0 30 -69 36 -77 6 -3 -11 -12 -20 -19 -20 -8 0 -14 9 -14
20 0 11 -4 20 -10 20 -5 0 -10 -9 -10 -20 0 -26 -28 -26 -38 1 -8 20 -8 20
-20 -6z m168 5 c0 -5 -4 -10 -10 -10 -5 0 -10 5 -10 10 0 6 5 10 10 10 6 0 10
-4 10 -10z"/>
<path d="M1115 680 c6 -18 2 -20 -31 -20 -31 0 -35 2 -24 15 10 12 10 15 -3
15 -25 0 -32 -22 -11 -37 12 -9 32 -12 53 -9 44 7 58 20 41 41 -18 21 -33 19
-25 -5z"/>
<path d="M1410 674 c-6 -14 -10 -27 -10 -28 0 -2 18 -3 40 -2 29 0 42 6 46 18
8 26 -3 38 -37 38 -22 0 -32 -6 -39 -26z m60 6 c0 -5 -4 -10 -10 -10 -5 0 -10
5 -10 10 0 6 5 10 10 10 6 0 10 -4 10 -10z"/>
<path d="M1573 682 c8 -35 -2 -52 -29 -52 -13 0 -24 -4 -24 -10 0 -15 29 -12
61 7 34 20 34 21 8 53 l-21 25 5 -23z"/>
</g>
</svg>
