<?xml version="1.0" standalone="no"?>
<!DOCTYPE svg PUBLIC "-//W3C//DTD SVG 20010904//EN"
 "http://www.w3.org/TR/2001/REC-SVG-20010904/DTD/svg10.dtd">
<svg version="1.0" xmlns="http://www.w3.org/2000/svg"
 width="512.000000pt" height="512.000000pt" viewBox="0 0 512.000000 512.000000"
 preserveAspectRatio="xMidYMid meet">

<g transform="translate(0.000000,512.000000) scale(0.100000,-0.100000)"
fill="#000000" stroke="none">
<path d="M2435 4721 c-32 -5 -35 -8 -19 -12 20 -6 22 -15 29 -144 7 -127 6
-139 -11 -152 -16 -12 -15 -13 12 -13 16 0 39 3 51 6 19 5 20 8 9 20 -9 8 -16
55 -21 139 -6 113 -5 128 11 146 20 22 17 22 -61 10z"/>
<path d="M2719 4711 c12 -12 31 -70 51 -157 18 -77 36 -145 40 -153 7 -13 32
26 115 187 23 43 49 79 64 87 l26 14 -25 1 c-14 0 -36 3 -50 7 -24 6 -24 6 -8
-11 20 -19 18 -25 -60 -166 l-36 -65 -28 114 c-21 86 -25 118 -16 128 14 18
12 19 -44 26 -46 6 -47 6 -29 -12z"/>
<path d="M2135 4685 c-22 -7 -32 -13 -23 -14 10 -1 22 -9 27 -19 13 -24 53
-182 49 -194 -2 -5 -60 33 -128 85 l-125 94 -40 -12 c-39 -11 -39 -11 -13 -18
29 -8 34 -18 68 -154 25 -99 25 -119 3 -133 -14 -9 -11 -9 17 -4 19 4 44 10
55 15 19 7 19 8 -2 8 -12 1 -27 9 -32 19 -11 21 -64 223 -59 227 2 2 66 -43
143 -100 77 -58 143 -104 147 -105 3 0 -9 57 -28 128 -39 146 -41 167 -16 181
23 14 6 12 -43 -4z"/>
<path d="M3203 4622 c17 -18 16 -24 -23 -131 -48 -136 -56 -151 -78 -152 -9 0
32 -18 91 -40 104 -39 109 -40 122 -22 21 27 18 35 -8 18 -21 -13 -28 -13 -73
1 -27 9 -53 21 -59 25 -11 11 23 119 40 125 21 9 105 -34 105 -53 1 -11 7 -4
15 16 19 42 19 47 0 31 -12 -10 -25 -9 -65 6 -27 10 -50 22 -50 27 0 6 9 36
21 68 l21 58 61 -22 c48 -17 63 -28 68 -47 4 -14 7 -20 8 -13 1 6 4 18 7 26 6
16 9 14 -126 64 -77 28 -91 31 -77 15z"/>
<path d="M1595 4500 c-37 -22 -44 -30 -28 -30 25 0 43 -23 102 -132 42 -76 42
-77 26 -111 -18 -39 -50 -59 -91 -59 -36 0 -65 34 -122 143 -32 63 -40 85 -31
95 6 8 9 14 6 14 -6 0 -97 -51 -97 -54 0 -1 10 -2 22 -2 18 1 33 -18 77 -96
31 -54 65 -104 76 -112 57 -43 174 11 175 81 1 17 2 17 15 -1 13 -17 18 -17
45 -6 35 14 50 31 21 23 -22 -6 -40 17 -109 147 -39 74 -49 99 -41 113 13 22
13 22 -46 -13z"/>
<path d="M3638 4437 c16 -19 13 -26 -71 -152 -64 -96 -75 -107 -94 -100 -23 8
-14 -2 27 -29 47 -31 50 -31 44 -8 -5 18 49 112 64 112 5 0 17 -9 28 -21 14
-16 20 -42 24 -106 4 -74 8 -88 27 -100 21 -14 21 -13 17 24 -2 21 -5 66 -8
101 l-4 62 33 0 c24 0 39 7 54 26 33 42 27 72 -23 118 -45 43 -142 103 -118
73z m106 -79 c22 -31 20 -68 -6 -95 -26 -28 -63 -29 -100 -5 l-27 18 41 62
c43 66 58 69 92 20z"/>
<path d="M2370 4264 c-311 -45 -564 -148 -806 -330 -151 -113 -333 -304 -423
-443 -136 -211 -224 -449 -261 -703 -16 -110 -8 -438 15 -562 39 -216 155
-488 278 -649 232 -306 482 -498 807 -619 141 -52 236 -74 425 -94 326 -36
623 18 915 167 256 131 456 304 647 559 96 128 201 351 244 517 51 196 70 490
45 682 -28 211 -68 345 -167 543 -79 160 -106 202 -211 325 -101 117 -203 213
-314 292 -94 67 -292 174 -391 211 -93 35 -280 80 -393 95 -94 13 -344 18
-410 9z m455 -90 c49 -9 92 -17 94 -19 2 -3 -151 -4 -340 -4 -237 0 -339 3
-326 10 9 5 59 14 110 20 50 5 97 12 102 14 19 9 271 -6 360 -21z m257 -62
c32 -9 58 -19 58 -22 0 -5 -890 -7 -1040 -2 -69 2 -81 5 -65 14 55 32 99 34
544 31 384 -3 454 -6 503 -21z m182 -68 l51 -23 -40 -1 c-144 -5 -945 -6
-1160 -1 l-260 6 39 21 c38 20 50 21 678 21 l641 1 51 -24z m126 -64 c14 -10
22 -21 19 -24 -7 -7 -1660 -9 -1667 -2 -2 3 10 14 28 25 32 19 55 19 814 20
748 0 782 -1 806 -19z m60 -50 c8 0 29 -11 45 -24 l30 -24 -920 0 c-506 0
-929 3 -939 7 -21 8 -18 11 27 34 20 10 653 13 1757 7z m133 -89 l21 -21 -94
0 c-376 -1 -1409 -1 -1659 0 l-305 1 29 23 28 22 979 -2 980 -1 21 -22z m-885
-41 c816 -1 942 -3 953 -16 6 -8 9 -17 6 -20 -8 -8 -1326 -13 -1780 -7 -382 6
-397 7 -381 24 13 15 36 19 118 22 55 2 110 2 122 0 11 -1 444 -3 962 -3z
m721 -97 l254 -6 -7 -1066 c-4 -586 -9 -1086 -13 -1111 -14 -104 -82 -167
-238 -219 -92 -31 -317 -71 -396 -71 -20 0 -76 -7 -125 -15 -192 -33 -271 -77
-325 -178 l-20 -38 -49 54 c-90 98 -219 146 -450 167 -151 14 -321 37 -374 51
-124 33 -205 102 -233 199 -17 59 -17 37 4 1702 l6 538 856 0 c471 0 970 -3
1110 -7z m356 -33 c18 -19 17 -20 -3 -20 -15 0 -22 6 -22 20 0 11 2 20 3 20 2
0 12 -9 22 -20z m-2379 -19 c-4 -6 -14 -11 -22 -11 -12 0 -12 3 -2 20 7 11 16
16 21 11 5 -5 6 -14 3 -20z m2424 -43 l21 -23 -37 -3 c-41 -4 -60 8 -51 32 9
23 43 20 67 -6z m-2422 -10 c-2 -17 -11 -22 -45 -25 -47 -4 -49 -2 -31 27 9
13 24 20 46 20 29 0 33 -3 30 -22z m0 -66 c3 -21 0 -22 -73 -22 -72 0 -75 1
-65 19 8 15 23 21 63 24 70 4 72 4 75 -21z m2482 9 c5 -11 10 -22 10 -25 0
-11 -129 -6 -135 4 -16 26 5 40 59 40 44 0 57 -4 66 -19z m-2482 -73 c-3 -22
-8 -23 -95 -26 -51 -1 -93 0 -93 3 0 4 5 15 10 26 9 16 22 19 96 19 83 0 85
-1 82 -22z m2530 -5 l14 -23 -90 0 c-91 0 -109 7 -98 36 5 12 22 14 82 12 67
-3 79 -6 92 -25z m-2528 -52 c0 -38 -11 -41 -126 -41 -63 0 -114 3 -114 6 0 3
5 14 10 25 10 17 22 19 120 19 61 0 110 -4 110 -9z m2570 -10 c5 -11 10 -22
10 -25 0 -2 -51 -3 -112 -1 -106 2 -113 4 -116 24 -3 20 0 21 102 21 94 0 106
-2 116 -19z m-2576 -61 c5 -5 6 -15 3 -23 -4 -10 -26 -13 -99 -11 -51 2 -110
3 -130 4 -40 0 -47 10 -25 32 10 10 43 12 128 10 63 -2 118 -7 123 -12z m2604
8 c32 -32 14 -38 -118 -38 -119 0 -130 1 -130 18 0 10 3 22 7 25 12 13 228 8
241 -5z m-2603 -70 c4 -4 5 -14 2 -23 -5 -12 -30 -15 -152 -15 -81 0 -145 4
-145 9 0 40 8 43 151 39 75 -2 141 -6 144 -10z m2643 -15 c3 -23 3 -23 -142
-23 -135 0 -146 1 -146 18 0 10 3 22 7 26 4 3 68 5 142 4 132 -3 136 -4 139
-25z m-2646 -55 c13 -35 -2 -38 -163 -38 -90 0 -159 4 -159 9 0 39 8 41 165
41 113 0 154 -3 157 -12z m2676 -16 l3 -23 -158 3 c-156 3 -158 3 -161 26 l-3
23 158 -3 c156 -3 158 -3 161 -26z m-2820 -42 l142 0 0 -24 0 -25 -170 1 c-94
1 -173 5 -176 10 -3 4 0 17 6 29 9 15 18 19 33 15 12 -3 86 -6 165 -6z m2842
-11 c7 -11 10 -22 8 -24 -3 -4 -175 -7 -280 -6 -61 1 -68 3 -68 21 0 18 8 20
138 23 75 1 149 4 164 5 19 1 31 -4 38 -19z m-2792 -55 c79 -6 92 -9 92 -25 0
-23 -18 -25 -212 -21 -144 3 -158 5 -158 21 0 10 3 21 7 24 8 9 153 9 271 1z
m2820 -21 l3 -23 -185 0 c-174 0 -186 1 -186 18 0 10 3 22 7 26 4 3 86 5 182
4 174 -3 176 -3 179 -25z m12 -48 c7 -8 10 -22 6 -30 -5 -13 -32 -15 -193 -13
-186 3 -188 3 -191 25 -3 22 -3 23 175 26 98 1 181 4 184 5 4 1 12 -5 19 -13z
m-2735 -20 c0 -19 -7 -20 -185 -22 -102 -2 -191 1 -199 6 -8 5 -11 16 -8 25 6
15 29 16 199 14 185 -3 193 -4 193 -23z m-107 -44 c101 -1 103 -1 100 -23 -2
-14 -10 -23 -20 -22 -10 0 -101 1 -203 2 -172 2 -185 3 -185 20 0 10 2 21 5
24 3 3 49 4 103 2 53 -1 143 -3 200 -3z m2859 -3 c7 -6 13 -17 13 -24 0 -11
-38 -14 -205 -14 -195 0 -205 1 -205 19 0 11 5 21 10 23 27 9 376 5 387 -4z
m-2773 -64 c9 -3 16 -15 16 -25 0 -18 -11 -19 -215 -19 -202 0 -215 1 -215 18
0 10 3 22 7 25 8 9 386 9 407 1z m2804 -21 l3 -23 -210 0 c-211 0 -230 3 -217
36 5 12 38 14 213 12 207 -3 208 -3 211 -25z m-2955 -43 l168 0 -3 -22 c-3
-20 -9 -23 -48 -23 -380 4 -390 5 -390 20 0 22 31 36 70 30 19 -2 111 -5 203
-5z m2941 0 c14 -5 26 -16 26 -25 0 -17 -18 -18 -280 -15 -98 1 -147 5 -152
13 -4 7 -4 15 0 19 4 4 86 9 182 11 96 1 180 4 187 5 6 1 23 -2 37 -8z m-2776
-87 l3 -23 -219 0 c-120 0 -221 3 -224 6 -3 3 -4 14 -1 25 5 19 14 19 222 17
215 -3 216 -3 219 -25z m2800 0 l3 -23 -220 0 c-208 0 -221 1 -221 18 0 10 3
22 7 26 4 3 102 5 217 4 210 -3 211 -3 214 -25z m-2798 -68 l0 -25 -209 0
c-115 0 -216 3 -225 6 -9 3 -16 15 -16 25 0 18 11 19 225 19 l225 0 0 -25z
m2808 3 l-3 -23 -220 0 -220 0 -3 23 -3 22 226 0 226 0 -3 -22z m-2814 -59 c5
-4 6 -14 3 -23 -5 -12 -37 -14 -224 -9 -120 3 -222 8 -226 12 -4 4 -5 15 -2
23 6 14 33 15 223 11 119 -3 221 -9 226 -14z m2814 -7 c4 -26 18 -25 -255 -27
l-193 -2 0 23 0 24 208 3 c114 1 214 2 222 2 8 0 16 -10 18 -23z m-2813 -67
c0 -19 -8 -20 -222 -23 l-223 -2 0 25 0 25 223 -2 c214 -3 222 -4 222 -23z
m2815 0 c0 -27 0 -27 -205 -27 -245 0 -245 0 -245 27 l0 25 225 0 225 0 0 -25z
m-2815 -70 c0 -19 -8 -20 -222 -23 l-223 -2 0 25 0 25 223 -2 c214 -3 222 -4
222 -23z m2812 10 c11 -35 -62 -43 -339 -37 l-108 2 0 25 0 25 222 -2 c136 -2
223 -7 225 -13z m-2812 -80 c0 -19 -8 -20 -211 -23 -176 -2 -213 0 -223 12
-27 33 -3 36 217 34 209 -3 217 -4 217 -23z m2800 0 c0 -19 -8 -20 -217 -23
l-218 -2 0 25 0 25 218 -2 c209 -3 217 -4 217 -23z m-2884 -45 c80 0 89 -2 89
-19 0 -25 -53 -31 -255 -28 -162 3 -185 7 -185 32 0 11 23 15 103 18 56 2 115
2 131 0 16 -2 68 -3 117 -3z m2791 0 c87 0 89 -1 86 -22 -3 -23 -6 -23 -153
-26 -82 -2 -178 0 -212 3 -53 6 -63 10 -63 25 0 17 10 20 98 23 53 2 110 2
126 0 16 -2 69 -3 118 -3z m-2715 -67 c7 -3 13 -13 13 -23 0 -17 -11 -19 -108
-22 -60 -2 -155 -1 -213 2 -99 5 -104 6 -107 28 l-3 22 202 -1 c112 -1 209 -3
216 -6z m2776 1 c9 -3 17 -13 17 -23 0 -15 -11 -19 -72 -23 -40 -3 -93 -5
-118 -4 -25 1 -87 3 -137 4 -83 2 -93 4 -93 20 0 10 2 21 5 23 6 7 376 9 398
3z m-2775 -86 c-3 -23 -5 -23 -197 -26 -152 -3 -196 0 -202 10 -23 36 -14 38
197 38 l205 0 -3 -22z m2780 0 c-3 -23 -4 -23 -205 -26 l-203 -2 0 25 0 25
206 0 205 0 -3 -22z m-2774 -58 c25 -25 -16 -32 -192 -32 -99 0 -185 3 -191 6
-6 4 -11 15 -11 25 0 17 12 18 192 14 106 -2 197 -8 202 -13z m2760 9 c2 -2 0
-13 -4 -25 -8 -20 -16 -21 -155 -23 -179 -2 -235 4 -235 28 0 10 2 20 4 22 5
5 385 3 390 -2z m-2764 -84 l0 -25 -169 0 c-93 0 -176 3 -185 6 -9 3 -16 15
-16 25 0 18 10 19 185 19 l185 0 0 -25z m2735 0 c0 -19 -8 -20 -182 -23 l-183
-2 0 23 0 24 183 -1 c175 -1 182 -2 182 -21z m-2737 -72 l3 -23 -163 0 c-164
0 -188 5 -188 36 0 17 47 20 210 14 131 -5 135 -6 138 -27z m2722 14 c0 -32
-24 -37 -187 -37 -151 0 -163 1 -163 18 0 10 3 22 7 25 3 4 82 7 175 7 131 0
168 -3 168 -13z m-2720 -83 l0 -26 -152 7 c-84 4 -156 9 -160 12 -5 2 -8 11
-8 19 0 12 27 14 160 14 l160 0 0 -26z m2690 17 c0 -39 -8 -41 -166 -41 -143
0 -154 1 -154 18 0 10 3 22 7 25 10 11 313 8 313 -2z m-2747 -60 c55 -1 57 -2
57 -27 l0 -27 -137 8 c-76 4 -141 9 -145 12 -5 2 -8 10 -8 18 0 17 37 23 115
19 33 -1 86 -3 118 -3z m2717 -14 c0 -31 -24 -37 -157 -37 -122 0 -133 1 -133
18 0 10 3 22 7 25 3 4 69 7 145 7 107 0 138 -3 138 -13z m-2692 -56 c25 -1 32
-5 32 -21 0 -19 -7 -20 -123 -20 -123 0 -124 0 -135 25 l-12 26 103 -5 c56 -2
117 -5 135 -5z m2662 -8 c-1 -26 -23 -35 -96 -39 -111 -7 -164 2 -164 27 0 18
8 19 130 19 72 0 130 -3 130 -7z m-2630 -77 c0 -24 -2 -25 -96 -28 -75 -2 -98
0 -108 12 -33 39 -31 40 88 40 l116 0 0 -24z m2586 13 c3 -6 -2 -20 -13 -30
-17 -17 -28 -18 -111 -13 -77 6 -92 10 -92 24 0 9 3 20 7 23 11 12 201 8 209
-4z m-2586 -79 c0 -12 -7 -20 -17 -20 -10 -1 -42 -3 -72 -6 -41 -3 -58 0 -72
12 -10 9 -16 21 -13 25 3 5 43 9 90 9 77 0 84 -2 84 -20z m2527 12 c19 -6 20
-9 8 -25 -11 -15 -25 -17 -86 -15 -68 3 -74 5 -77 26 -3 21 0 22 65 21 37 -1
78 -4 90 -7z m-2527 -76 c0 -25 -3 -26 -52 -26 -46 0 -88 18 -88 39 0 3 32 7
70 9 69 3 70 3 70 -22z m2495 -6 c-14 -15 -31 -20 -72 -20 -46 0 -53 2 -53 20
0 18 7 20 72 20 70 0 71 0 53 -20z m-2495 -65 c0 -20 -5 -25 -27 -25 -26 0
-63 25 -63 42 0 4 20 8 45 8 41 0 45 -2 45 -25z m2445 15 c11 -18 -15 -40 -46
-40 -21 0 -29 5 -29 18 0 10 3 22 7 25 10 11 61 8 68 -3z m-2435 -80 c0 -11
-4 -20 -10 -20 -5 0 -14 9 -20 20 -9 17 -8 20 10 20 13 0 20 -7 20 -20z m2390
12 c0 -9 -25 -33 -47 -46 -8 -5 -9 1 0 24 10 27 47 44 47 22z m-279 -242 c-13
-11 -35 -20 -49 -20 -31 0 -22 11 21 27 47 17 55 15 28 -7z m-1781 -11 c20 -6
16 -7 -21 -8 -26 -1 -53 5 -65 14 -18 14 -16 15 21 9 22 -4 51 -11 65 -15z
m379 -54 c57 -8 107 -17 109 -20 8 -7 -334 -6 -405 1 -37 4 -69 14 -84 26 -24
20 -24 20 126 14 83 -4 197 -13 254 -21z m1327 16 c-3 -5 -21 -16 -39 -24 -28
-14 -69 -16 -230 -15 -107 1 -194 5 -192 9 3 3 53 9 112 13 59 4 126 11 148
15 55 12 207 13 201 2z m-1068 -84 c17 -10 32 -20 32 -23 0 -3 -116 -4 -258
-2 -248 4 -259 4 -295 27 -20 12 -37 23 -37 24 0 1 118 0 262 -3 227 -4 267
-7 296 -23z m962 28 c0 -2 -23 -16 -50 -30 l-50 -25 -258 2 -257 3 30 20 c26
18 51 21 245 25 118 3 243 7 278 8 34 1 62 0 62 -3z m-867 -92 c9 -9 17 -20
17 -26 0 -5 -76 -7 -197 -5 -154 4 -214 9 -268 24 l-70 19 70 5 c39 3 151 4
250 2 146 -3 183 -7 198 -19z m660 -8 c-50 -22 -66 -24 -258 -26 -112 -2 -207
0 -211 3 -3 4 4 16 15 27 20 20 31 21 264 20 l242 0 -52 -24z m-714 -49 c91
-4 110 -11 111 -42 0 -11 -40 -8 -246 22 -143 20 -170 37 -49 29 50 -3 132 -7
184 -9z m541 -5 c-72 -23 -135 -34 -222 -38 -87 -5 -98 -4 -98 11 0 27 36 33
195 34 87 0 139 -3 125 -7z"/>
<path d="M1488 3468 c-5 -226 -13 -1258 -13 -1698 l0 -286 25 -49 c23 -44 35
-55 100 -88 99 -49 197 -67 579 -102 131 -13 277 -76 336 -147 l26 -30 39 45
c22 25 60 57 85 71 66 39 218 73 404 91 242 23 383 62 476 133 41 31 52 46 62
86 14 56 23 2149 9 2163 -4 4 -484 9 -1066 11 l-1058 3 -4 -203z m820 75 l103
-104 -20 -28 c-24 -33 -29 -83 -13 -132 9 -26 27 -44 66 -70 67 -43 98 -86 94
-130 -3 -31 -10 -25 -298 265 -162 163 -297 299 -300 302 -3 3 56 4 130 3
l135 -2 103 -104z m586 -193 l-299 -300 -3 41 c-4 49 10 67 84 109 33 18 60
42 70 62 21 41 24 107 5 140 -17 33 -14 38 93 153 l88 95 130 0 131 0 -299
-300z m-553 248 c18 -24 51 -63 73 -87 28 -31 36 -46 26 -49 -12 -4 -170 154
-170 171 0 4 9 7 19 7 11 0 34 -19 52 -42z m109 -18 c30 -60 38 -100 20 -100
-12 0 -120 133 -120 149 0 6 15 11 35 11 32 0 37 -4 65 -60z m100 -20 c0 -44
-4 -80 -9 -80 -12 0 -81 123 -81 144 0 12 11 16 45 16 l45 0 0 -80z m130 75
c0 -13 -61 -124 -71 -131 -17 -10 -26 13 -23 56 4 60 19 80 59 80 19 0 35 -2
35 -5z m69 -44 c-35 -55 -86 -108 -95 -98 -4 3 2 18 12 33 11 15 24 35 30 46
18 31 57 68 70 68 8 0 2 -18 -17 -49z m70 2 c-50 -55 -59 -61 -59 -39 0 23 61
84 84 85 14 1 9 -9 -25 -46z m-79 -94 c-7 -11 -14 -18 -17 -15 -8 8 5 36 17
36 7 0 7 -6 0 -21z m-215 -68 c9 -16 -37 -42 -52 -29 -19 16 -16 26 10 31 12
2 25 5 29 6 4 0 9 -3 13 -8z m111 -11 c25 -10 26 -12 11 -27 -15 -15 -18 -15
-37 2 -36 32 -24 44 26 25z m-182 -57 c-18 -29 -34 -27 -34 5 0 37 10 46 29
27 12 -11 13 -20 5 -32z m140 15 c8 -13 6 -22 -8 -37 -11 -12 -23 -21 -28 -21
-13 0 -31 47 -24 65 8 21 45 16 60 -7z m122 -2 c7 -29 -1 -46 -22 -46 -9 0
-14 10 -14 28 0 47 25 59 36 18z m-200 -47 c14 -15 16 -24 8 -37 -27 -41 -63
-17 -50 33 8 30 17 31 42 4z m-106 -10 c0 -5 -4 -9 -10 -9 -5 0 -10 7 -10 16
0 8 5 12 10 9 6 -3 10 -10 10 -16z m240 -4 c10 -12 10 -18 0 -30 -7 -8 -19
-15 -27 -15 -11 0 -11 4 -3 20 6 11 8 25 5 30 -10 16 11 11 25 -5z m72 -27
c-7 -7 -12 -8 -12 -2 0 6 3 14 7 17 3 4 9 5 12 2 2 -3 -1 -11 -7 -17z m-258
-21 c8 -12 7 -20 -1 -28 -16 -16 -33 -2 -33 27 0 28 17 28 34 1z m121 -23 c0
-14 -7 -19 -25 -19 -26 0 -37 22 -26 52 6 14 9 14 29 0 12 -8 22 -23 22 -33z
m100 -4 c-3 -5 -10 -10 -16 -10 -5 0 -9 5 -9 10 0 6 7 10 16 10 8 0 12 -4 9
-10z m-177 -21 c12 -18 11 -20 -5 -17 -10 2 -19 11 -21 21 -5 23 10 21 26 -4z
m105 -20 c-17 -17 -37 -1 -22 17 8 10 15 12 23 4 7 -7 7 -13 -1 -21z m-770
-381 c130 -130 237 -240 237 -245 0 -11 -193 -208 -432 -442 l-148 -145 0 584
0 583 53 -50 c28 -28 159 -156 290 -285z m1759 -150 c-1 -255 -1 -510 -1 -568
l-1 -105 -280 280 c-154 154 -280 286 -280 294 0 15 551 574 558 566 2 -2 4
-212 4 -467z m-1140 320 c31 -14 62 -36 68 -48 14 -25 9 -611 -4 -642 -7 -16
-11 -15 -44 7 -47 31 -120 47 -197 44 l-60 -3 2 195 c1 107 2 259 2 338 l1
143 88 -4 c66 -3 100 -10 144 -30z m415 -308 l3 -325 -78 -1 c-66 0 -86 -5
-141 -32 -46 -24 -67 -30 -75 -22 -12 12 -15 575 -3 620 3 14 17 31 29 39 42
27 142 50 203 48 l60 -2 2 -325z m-673 227 c0 -45 -1 -191 -2 -323 l-2 -241
-29 -37 -29 -36 -5 33 c-3 17 -3 122 -2 232 2 110 4 244 4 297 1 89 3 99 27
127 14 17 29 31 32 31 4 0 7 -37 6 -83z m727 8 c4 25 7 5 8 -55 3 -101 17 -94
21 10 2 53 3 54 9 15 3 -22 4 -168 0 -325 -3 -182 -6 -245 -9 -175 -2 61 -3
133 -2 162 2 28 -2 54 -8 58 -7 4 -10 -39 -10 -135 0 -100 -3 -139 -11 -134
-7 4 -10 37 -9 88 4 115 -3 127 -10 21 -4 -55 -7 25 -7 205 -1 280 5 370 18
270 l5 -45 5 40z m-84 -586 c34 -12 83 -58 83 -76 0 -10 -29 -13 -127 -13
-158 0 -203 -7 -203 -29 0 -23 -20 -41 -45 -41 -26 0 -45 18 -45 42 0 17 -13
18 -175 18 -191 0 -199 3 -147 52 31 31 72 48 110 48 60 -1 168 -36 209 -69
l42 -33 33 26 c41 31 96 55 163 72 64 16 68 16 102 3z m-39 -471 c2 -5 -19 -8
-47 -8 -28 0 -51 -3 -51 -7 0 -3 11 -21 25 -39 14 -18 25 -35 25 -38 0 -3 -25
-6 -55 -6 -30 0 -55 2 -55 5 0 2 9 19 19 37 11 17 18 35 15 40 -7 10 -204 11
-204 0 0 -4 11 -23 25 -42 14 -19 25 -36 25 -39 0 -3 -29 -4 -65 -3 l-66 4 31
34 c16 19 30 39 30 44 0 6 -36 10 -82 10 l-83 0 130 130 129 130 126 -123 c69
-67 126 -125 128 -129z m-408 -57 c-20 -30 -56 -48 -68 -37 -7 8 59 65 76 66
9 0 7 -9 -8 -29z m250 19 c0 -19 -32 -60 -46 -60 -19 0 -18 7 7 41 20 29 39
38 39 19z m220 -95 l0 -95 -280 2 c-218 1 -283 5 -292 15 -9 11 38 13 266 13
l276 0 0 78 c0 43 3 82 6 85 17 17 24 -12 24 -98z m-591 -99 c9 -11 29 -16 67
-16 30 0 54 -3 54 -7 0 -22 -43 -120 -58 -130 -8 -7 -31 -13 -49 -13 l-32 0
-3 -97 c-3 -84 -5 -98 -20 -97 -9 1 -63 4 -120 8 -56 4 -134 11 -173 16 -38 5
-94 13 -123 16 -29 4 -51 11 -50 16 2 5 111 117 243 248 l240 240 5 -84 c3
-49 11 -90 19 -100z m835 -75 c114 -115 204 -211 198 -215 -34 -21 -389 -65
-412 -51 -6 3 -10 47 -10 96 l0 91 -38 -7 c-27 -4 -42 -2 -49 7 -16 21 -52
126 -46 132 4 3 35 6 70 6 l63 0 1 48 c1 26 0 59 -1 75 -1 15 2 27 7 27 4 0
102 -94 217 -209z m-368 -22 c18 -49 19 -60 7 -57 -18 4 -56 97 -48 117 8 20
17 7 41 -60z m119 -175 c0 -57 -3 -69 -17 -72 -16 -3 -18 5 -18 66 0 38 3 72
7 76 18 18 28 -6 28 -70z m-290 52 c18 -13 18 -14 -3 -20 -31 -10 -42 -37 -49
-117 l-6 -69 -54 0 c-43 0 -113 20 -113 33 0 1 19 1 43 -1 23 -2 54 1 70 7 25
10 27 14 27 71 0 51 4 65 25 85 28 29 34 30 60 11z m28 -108 c2 -35 7 -72 11
-83 4 -15 -4 -31 -35 -63 l-41 -43 -31 31 -31 30 36 0 36 0 3 85 c3 62 8 88
19 95 25 16 28 12 33 -52z m87 -73 c-33 -19 -50 -19 -50 0 0 11 11 15 38 15
l37 -1 -25 -14z"/>
<path d="M2272 2879 c2 -6 42 -22 88 -36 47 -13 99 -33 116 -44 38 -23 51 -25
33 -3 -18 21 -93 58 -158 78 -64 19 -84 20 -79 5z"/>
<path d="M2276 2701 c-12 -19 4 -31 38 -31 43 0 111 -24 159 -56 41 -27 65
-25 31 2 -29 23 -155 83 -190 90 -19 3 -34 2 -38 -5z"/>
<path d="M2277 2513 c-19 -18 0 -30 66 -41 39 -7 92 -22 116 -33 24 -10 46
-17 49 -15 9 10 -65 47 -141 71 -89 29 -82 27 -90 18z"/>
<path d="M2740 2872 c-58 -22 -103 -47 -119 -66 -18 -22 -3 -20 37 4 17 11 61
29 97 41 36 11 65 25 65 30 0 13 -29 10 -80 -9z"/>
<path d="M2728 2691 c-81 -35 -146 -73 -131 -78 7 -3 29 4 50 15 21 11 63 27
93 37 61 20 82 33 74 46 -7 13 -11 12 -86 -20z"/>
<path d="M2734 2515 c-62 -23 -148 -74 -140 -82 2 -2 24 6 48 18 23 12 72 30
108 39 40 10 65 22 65 30 0 21 -16 21 -81 -5z"/>
<path d="M2913 2685 c0 -44 2 -61 4 -37 2 23 2 59 0 80 -2 20 -4 1 -4 -43z"/>
<path d="M2940 2689 c0 -24 4 -38 10 -34 6 3 10 22 10 41 0 19 -4 34 -10 34
-5 0 -10 -18 -10 -41z"/>
<path d="M4009 4100 c-34 -20 -43 -65 -29 -145 14 -79 10 -94 -31 -116 -47
-25 -103 46 -81 104 l11 30 -28 -27 -28 -27 21 -26 c52 -63 65 -73 99 -73 41
0 83 30 89 65 3 14 -1 55 -8 90 -15 73 -7 109 25 120 44 14 87 -36 77 -88 l-6
-31 24 23 c27 25 27 24 -33 86 -25 26 -72 33 -102 15z"/>
<path d="M901 3946 c-39 -47 -71 -87 -71 -89 0 -3 8 -3 18 0 26 6 215 -150
222 -183 4 -21 12 -15 75 62 39 47 68 89 66 92 -2 4 -10 16 -17 27 -13 19 -14
18 -8 -11 5 -25 -1 -38 -31 -75 -21 -24 -40 -45 -44 -47 -4 -1 -31 16 -59 39
l-51 42 36 44 c27 32 42 43 56 39 17 -4 17 -2 -4 20 -25 27 -41 32 -33 9 6
-15 -50 -95 -66 -95 -10 0 -94 69 -98 81 -2 5 14 29 35 54 29 36 43 45 61 42
22 -4 22 -3 6 14 -9 11 -18 19 -19 19 -2 0 -35 -38 -74 -84z"/>
<path d="M4315 3824 c6 -25 0 -31 -128 -118 -84 -56 -101 -64 -119 -55 -17 9
-14 2 11 -35 32 -46 45 -58 35 -32 -6 15 27 42 149 126 70 47 81 52 99 41 20
-12 20 -12 3 16 -9 16 -26 40 -37 54 -17 22 -19 22 -13 3z"/>
<path d="M672 3615 c-27 -55 -27 -54 -1 -48 21 6 119 -34 119 -49 0 -4 -17
-41 -37 -82 l-37 -74 -58 29 c-44 22 -58 35 -58 52 -1 17 -6 12 -25 -23 -28
-53 -31 -67 -10 -50 13 11 36 3 140 -48 105 -51 125 -65 125 -84 1 -18 6 -13
25 22 28 52 31 67 11 50 -12 -9 -27 -6 -75 16 -34 15 -61 28 -61 30 0 12 76
154 83 154 22 0 109 -54 116 -72 6 -18 10 -13 28 30 21 49 21 51 3 39 -16 -10
-35 -4 -121 38 -119 59 -150 80 -142 100 12 33 -4 12 -25 -30z"/>
<path d="M4450 3580 l-35 -19 28 -1 c20 0 33 -9 47 -32 11 -18 20 -38 20 -44
0 -6 -57 -37 -127 -69 -101 -46 -130 -56 -144 -47 -15 10 -15 5 4 -37 14 -31
23 -42 25 -31 2 11 47 38 133 78 l129 61 15 -29 c18 -35 19 -72 3 -88 -15 -15
-6 -15 27 0 14 6 24 14 22 17 -24 42 -102 213 -106 233 l-6 26 -35 -18z"/>
<path d="M475 3163 c6 -18 -41 -232 -56 -249 -12 -15 -9 -17 39 -27 22 -5 23
-4 8 12 -17 18 -20 50 -10 89 7 26 -5 27 177 -15 88 -20 110 -29 116 -46 7
-17 9 -14 14 20 4 23 10 50 14 60 7 17 6 17 -11 1 -9 -10 -19 -18 -21 -18 -8
0 -269 61 -272 63 -8 8 21 80 38 96 20 18 20 19 -11 23 -24 4 -30 1 -25 -9z"/>
<path d="M4651 3143 c-1 -7 -28 -41 -61 -77 -59 -62 -63 -65 -132 -77 -66 -12
-72 -11 -84 6 -14 18 -14 18 -13 -1 1 -27 27 -103 28 -82 1 18 39 33 108 44
32 5 58 0 113 -21 39 -15 78 -34 87 -43 15 -16 16 -15 10 17 -4 18 -7 38 -7
44 0 6 -6 3 -13 -7 -13 -18 -16 -18 -63 -2 -80 27 -80 27 -23 81 49 46 53 47
65 30 8 -10 14 -17 14 -14 -2 18 -28 111 -29 102z"/>
<path d="M530 2544 c-11 -12 -10 -18 3 -32 16 -15 18 -15 34 0 13 14 14 20 3
32 -7 9 -16 16 -20 16 -4 0 -13 -7 -20 -16z"/>
<path d="M4567 2553 c-10 -9 -8 -41 2 -47 16 -10 41 5 41 24 0 10 -7 21 -16
24 -19 7 -19 7 -27 -1z"/>
<path d="M4372 2164 c-15 -53 -15 -53 7 -47 16 4 132 -22 131 -30 0 -1 -11
-38 -24 -82 -21 -73 -26 -80 -47 -78 -49 6 -108 34 -111 54 -2 12 -9 -2 -19
-35 -15 -51 -15 -54 2 -43 13 8 45 3 139 -23 122 -34 156 -51 144 -73 -5 -8
-4 -9 3 -2 13 13 36 95 29 103 -3 3 -6 1 -6 -5 0 -20 -29 -22 -85 -6 -55 16
-57 17 -51 45 14 70 38 138 50 138 7 0 36 -7 64 -15 48 -15 57 -24 52 -50 -5
-27 18 15 28 51 15 53 15 62 -1 40 -13 -17 -19 -17 -127 14 -137 39 -158 48
-162 69 -2 9 -9 -3 -16 -25z"/>
<path d="M603 2170 c-130 -31 -174 -191 -79 -286 67 -67 167 -65 237 5 116
116 2 320 -158 281z m146 -65 c102 -86 21 -224 -132 -225 -62 0 -100 20 -121
65 -43 90 44 184 171 185 41 0 58 -5 82 -25z"/>
<path d="M904 1718 c1 -18 -19 -34 -109 -85 -71 -41 -118 -62 -132 -60 -28 5
-28 4 -1 -44 21 -37 22 -38 32 -17 9 18 87 74 107 77 12 2 51 -81 46 -100 -6
-23 -4 -23 36 -2 l32 17 -25 6 c-16 4 -34 22 -48 47 l-23 42 53 30 c29 17 56
31 60 31 4 0 19 -21 34 -46 22 -38 25 -49 15 -70 -11 -24 -10 -24 13 -9 l24
16 -50 87 c-58 102 -65 110 -64 80z"/>
<path d="M4205 1701 c3 -5 -11 -26 -30 -47 -19 -20 -40 -54 -46 -74 -42 -141
126 -273 246 -194 28 18 105 127 105 148 0 6 -22 25 -48 41 -37 24 -46 36 -44
55 3 28 4 29 -36 -38 -26 -42 -28 -50 -12 -40 17 11 26 10 58 -7 46 -25 51
-52 17 -93 -45 -54 -121 -60 -197 -15 -68 40 -99 129 -62 181 23 33 72 55 108
48 31 -6 30 -6 -9 19 -42 26 -60 31 -50 16z"/>
<path d="M3895 1271 c-44 -27 -125 -115 -100 -107 16 5 41 -15 119 -93 85 -85
97 -102 91 -122 -6 -21 -1 -18 34 16 45 43 51 56 22 48 -27 -7 -107 67 -98 90
9 24 54 32 117 19 79 -17 94 -15 119 12 l22 23 -26 -5 c-15 -2 -59 1 -99 8
l-73 12 1 40 c1 70 -64 100 -129 59z m80 -37 c32 -35 31 -66 -2 -104 l-28 -31
-53 54 -53 54 31 27 c40 33 74 33 105 0z"/>
<path d="M1307 1187 c3 -17 -16 -49 -78 -126 -69 -85 -87 -102 -106 -98 -13 2
-23 3 -23 2 0 -4 151 -129 167 -139 7 -4 23 0 35 9 l23 17 -26 -6 c-20 -4 -37
2 -73 30 -25 19 -46 41 -46 49 0 19 71 101 84 97 20 -6 76 -65 76 -81 0 -11 4
-10 20 4 23 21 26 37 6 29 -8 -3 -31 9 -52 27 -22 18 -41 34 -43 36 -5 3 20
38 56 81 l28 32 47 -40 c26 -22 48 -50 50 -63 3 -22 4 -22 15 -2 10 18 4 26
-55 75 -118 98 -110 93 -105 67z"/>
<path d="M3591 1022 c-39 -22 -42 -26 -24 -33 29 -11 136 -197 128 -226 -8
-35 -47 -72 -81 -79 -24 -4 -37 0 -57 18 -38 33 -129 200 -117 212 24 24 6 23
-35 -2 -38 -23 -42 -28 -26 -34 11 -4 45 -50 76 -102 55 -94 89 -126 132 -126
30 0 83 38 105 76 18 30 23 33 30 20 9 -17 22 -13 62 17 18 13 18 14 -5 13
-19 -1 -34 17 -92 116 -59 100 -67 119 -57 137 6 12 9 21 8 20 -2 -1 -23 -13
-47 -27z"/>
<path d="M1652 931 c10 -16 4 -37 -42 -135 -56 -121 -71 -143 -92 -130 -9 5
-10 4 -3 -3 6 -6 47 -27 91 -47 125 -55 208 -47 252 26 44 73 36 151 -20 205
-26 25 -173 103 -194 103 -2 0 1 -9 8 -19z m113 -49 c62 -34 89 -79 80 -137
-9 -60 -48 -120 -92 -140 -36 -17 -39 -17 -93 1 -43 15 -56 24 -58 43 -3 21
96 260 108 260 3 1 28 -12 55 -27z"/>
<path d="M3020 769 c-78 -21 -96 -29 -66 -29 21 0 36 -34 72 -169 27 -102 27
-104 8 -119 -18 -13 -17 -14 11 -8 145 33 205 68 205 118 0 29 -54 78 -86 78
l-27 0 23 24 c41 45 21 107 -40 120 -14 3 -59 -4 -100 -15z m103 -16 c42 -49
8 -123 -58 -123 -12 0 -45 87 -45 118 0 26 80 29 103 5z m37 -138 c58 -30 51
-111 -10 -131 -44 -15 -56 -6 -75 59 -20 67 -19 75 8 80 41 8 48 7 77 -8z"/>
<path d="M2124 757 c19 -14 19 -17 -9 -146 -20 -97 -33 -136 -47 -145 -18 -13
-16 -14 19 -20 21 -4 47 -9 58 -12 18 -4 18 -4 3 6 -23 14 -23 30 7 163 17 77
31 117 45 128 19 16 18 17 -18 23 -20 4 -46 10 -57 13 -20 5 -20 5 -1 -10z"/>
<path d="M2697 713 c-24 -4 -25 -6 -12 -19 11 -12 15 -40 15 -120 0 -57 -2
-104 -4 -104 -2 0 -48 54 -102 120 l-98 120 -45 0 c-44 0 -45 -1 -21 -13 25
-12 25 -15 28 -150 3 -135 2 -138 -20 -147 -18 -7 -11 -9 32 -9 40 0 49 3 34
9 -19 8 -22 19 -28 135 -4 70 -5 129 -3 132 3 2 56 -58 118 -133 l114 -138 5
148 c4 131 7 149 24 162 20 14 18 15 -37 7z"/>
</g>
</svg>
